# Blender v2.79 (sub 0) OBJ File: ''
# www.blender.org
mtllib ClosetDoor.mtl
o Closet_door
v -1.763184 10.799272 17.265482
v -1.519144 10.962752 17.389883
v 2.908156 10.798382 17.220114
v 2.666476 10.961871 17.349043
v 3.910684 0.108092 17.210762
v 3.897115 0.111192 17.604382
v 2.908154 0.088391 17.220112
v 2.911964 0.105891 17.628511
v -2.679075 0.095292 17.274021
v -2.672155 0.106092 17.682421
v -2.679075 1.336492 17.274021
v -2.672155 1.336492 17.682421
v -2.679075 4.515292 17.274021
v -2.672155 4.515292 17.682421
v 3.910684 0.108092 17.210762
v 3.910685 1.357192 17.210762
v 3.897115 0.111192 17.604382
v 3.882675 1.356992 17.619461
v -2.692924 10.799782 17.274143
v -2.690344 9.353222 17.274122
v -2.685994 10.799782 17.682552
v -2.690344 9.353222 17.274122
v -2.683424 9.353222 17.682522
v -2.690344 9.353222 17.274122
v -2.674824 6.174403 17.682453
v -2.681754 6.174403 17.274042
v 3.863456 9.353222 17.619644
v 3.873696 6.174402 17.619553
v 3.859647 9.353222 17.211243
v 3.869885 6.174402 17.211143
v -2.681754 6.174403 17.274042
v -2.679075 4.515292 17.274021
v -2.674824 6.174403 17.682453
v -2.672155 4.515292 17.682421
v 3.869665 4.518842 17.211142
v 3.873475 4.518842 17.619551
v 3.910685 1.357192 17.210762
v 3.882675 1.356992 17.619461
v 2.908157 15.404943 17.220114
v -1.763183 15.430502 17.265482
v 2.911967 15.404943 17.628513
v -1.769503 15.430502 17.673883
v -1.763183 15.430502 17.265482
v -2.692923 15.440513 17.274143
v -1.769503 15.430502 17.673883
v -2.685993 15.440513 17.682552
v 3.863458 15.425191 17.619644
v 3.863457 14.176731 17.619644
v 3.859648 15.425191 17.211243
v 3.863457 14.176731 17.619644
v 3.859647 14.176731 17.211243
v 3.863457 10.798381 17.619644
v 3.859647 10.798381 17.211243
v 3.863456 9.353222 17.619644
v 3.859647 9.353222 17.211243
v -2.692924 10.799782 17.274143
v -2.685994 10.799782 17.682552
v -2.692923 14.187712 17.274143
v -2.685993 14.187712 17.682552
v -2.692923 15.440513 17.274143
v -2.685993 15.440513 17.682552
v 2.908154 0.088391 17.220112
v 2.911964 0.105891 17.628511
v -1.749345 0.083992 17.265350
v -1.756875 0.105792 17.670231
v -1.749345 4.515292 17.265350
v -1.749345 1.336492 17.265350
v -2.679075 4.515292 17.274021
v -1.749345 1.336492 17.265350
v -2.679075 1.336492 17.274021
v -1.749345 1.336492 17.265350
v -2.679075 0.095292 17.274021
v -1.749345 1.336492 17.265350
v -1.749345 0.083992 17.265350
v -1.749345 1.336492 17.265350
v 2.908154 0.088391 17.220112
v 2.908155 1.352591 17.220112
v 3.910684 0.108092 17.210762
v 2.908155 1.352591 17.220112
v 3.910685 1.357192 17.210762
v 2.908155 1.352591 17.220112
v 3.869665 4.518842 17.211142
v 2.908155 4.518081 17.220112
v 3.869665 4.518842 17.211142
v 2.908155 6.157171 17.220114
v 3.869885 6.174402 17.211143
v 2.908156 9.353222 17.220114
v 3.859647 9.353222 17.211243
v 3.859647 10.798381 17.211243
v 2.908157 14.177032 17.220114
v -1.763183 14.183433 17.265482
v 2.908157 15.404943 17.220114
v -1.763183 14.183433 17.265482
v -1.763183 15.430502 17.265482
v -2.692923 14.187712 17.274143
v -2.692923 15.440513 17.274143
v -2.692923 14.187712 17.274143
v -1.763183 14.183433 17.265482
v -2.692924 10.799782 17.274143
v -1.763184 10.799272 17.265482
v -2.690344 9.353222 17.274122
v -1.760614 9.353222 17.265453
v -2.681754 6.174403 17.274042
v -1.751924 6.157172 17.265373
v -2.679075 4.515292 17.274021
v -1.751924 6.157172 17.265373
v -1.749345 4.515292 17.265350
v -1.751924 6.157172 17.265373
v 2.908155 4.518081 17.220112
v 2.908155 6.157171 17.220114
v 3.859648 15.425191 17.211243
v 3.859647 14.176731 17.211243
v 2.908157 15.404943 17.220114
v 3.859647 14.176731 17.211243
v 2.908157 14.177032 17.220114
v 3.859647 10.798381 17.211243
v 2.908156 10.798382 17.220114
v 2.908156 9.353222 17.220114
v 2.908156 10.798382 17.220114
v -1.760614 9.353222 17.265453
v -1.763184 10.799272 17.265482
v -1.279413 13.735022 17.343603
v 2.426007 13.731421 17.307234
v -1.279414 11.245173 17.343603
v 2.426007 11.244142 17.307234
v -1.265575 1.739492 17.343472
v -1.265575 4.095922 17.343472
v 2.426005 1.768191 17.307232
v 2.426006 4.099851 17.307232
v -1.519143 14.018692 17.389883
v -1.763183 14.183433 17.265482
v 2.666477 14.013692 17.349043
v 2.908157 14.177032 17.220114
v -1.760614 9.353222 17.265453
v 2.908156 9.353222 17.220114
v -1.516124 9.199463 17.389853
v 2.666476 9.199461 17.349043
v -1.508324 6.310922 17.389772
v -1.751924 6.157172 17.265373
v -1.516124 9.199463 17.389853
v -1.760614 9.353222 17.265453
v -1.505305 4.361542 17.389751
v -1.749345 4.515292 17.265350
v 2.666475 4.364741 17.349041
v 2.908155 4.518081 17.220112
v -1.749345 1.336492 17.265350
v -1.749345 4.515292 17.265350
v -1.505305 1.490192 17.389751
v -1.505305 4.361542 17.389751
v 3.863458 15.425191 17.619644
v 3.859648 15.425191 17.211243
v 2.911967 15.404943 17.628513
v 2.908157 15.404943 17.220114
v -1.508324 6.310922 17.389772
v 2.666475 6.310921 17.349043
v -1.751924 6.157172 17.265373
v 2.908155 6.157171 17.220114
v 2.908155 6.157171 17.220114
v 2.666475 6.310921 17.349043
v 2.908156 9.353222 17.220114
v 2.666476 9.199461 17.349043
v -1.749345 1.336492 17.265350
v -1.505305 1.490192 17.389751
v 2.908155 1.352591 17.220112
v 2.666475 1.504592 17.349041
v 2.666475 1.504592 17.349041
v 2.666475 4.364741 17.349041
v 2.908155 1.352591 17.220112
v 2.908155 4.518081 17.220112
v -1.279413 13.735022 17.343603
v -1.346313 13.778252 17.388264
v 2.426007 13.731421 17.307234
v 2.493647 13.774282 17.350653
v -1.342704 8.974182 17.388233
v 2.493646 8.974181 17.350653
v -1.275734 8.933832 17.343563
v 2.426006 8.933831 17.307234
v -1.269404 6.576542 17.343513
v -1.336074 6.536192 17.388172
v -1.275734 8.933832 17.343563
v -1.342704 8.974182 17.388233
v -1.265575 4.095922 17.343472
v -1.332465 4.136262 17.388130
v 2.426006 4.099851 17.307232
v 2.493646 4.140141 17.350651
v -1.346314 11.202312 17.388264
v -1.279414 11.245173 17.343603
v 2.493647 11.201283 17.350653
v 2.426007 11.244142 17.307234
v -1.269404 6.576542 17.343513
v 2.426006 6.576542 17.307234
v -1.336074 6.536192 17.388172
v 2.493646 6.536192 17.350653
v 2.493646 6.536192 17.350653
v 2.426006 6.576542 17.307234
v 2.493646 8.974181 17.350653
v 2.426006 8.933831 17.307234
v -1.332465 1.699192 17.388130
v -1.265575 1.739492 17.343472
v 2.493645 1.728291 17.350651
v 2.426005 1.768191 17.307232
v 2.426005 1.768191 17.307232
v 2.426006 4.099851 17.307232
v 2.493645 1.728291 17.350651
v 2.493646 4.140141 17.350651
v -1.265575 4.095922 17.343472
v -1.265575 1.739492 17.343472
v -1.332465 4.136262 17.388130
v -1.332465 1.699192 17.388130
v -1.279413 13.735022 17.343603
v -1.279414 11.245173 17.343603
v -1.346313 13.778252 17.388264
v -1.346314 11.202312 17.388264
v 2.426007 11.244142 17.307234
v 2.426007 13.731421 17.307234
v 2.493647 11.201283 17.350653
v 2.493647 13.774282 17.350653
v 2.666476 10.961871 17.349043
v 2.666477 14.013692 17.349043
v 2.908156 10.798382 17.220114
v 2.908157 14.177032 17.220114
v -1.763184 10.799272 17.265482
v -1.763183 14.183433 17.265482
v -1.519144 10.962752 17.389883
v -1.519143 14.018692 17.389883
v 2.426006 6.576542 17.307234
v -1.269404 6.576542 17.343513
v 2.426006 8.933831 17.307234
v -1.275734 8.933832 17.343563
v -1.749345 0.083992 17.265350
v -1.756875 0.105792 17.670231
v -2.679075 0.095292 17.274021
v -2.672155 0.106092 17.682421
v 3.869665 4.518842 17.211142
v 3.869885 6.174402 17.211143
v 3.873475 4.518842 17.619551
v 3.873696 6.174402 17.619553
v 2.493647 13.774282 17.350653
v -1.346313 13.778252 17.388264
v -1.519143 14.018692 17.389883
v -1.346313 13.778252 17.388264
v -1.519144 10.962752 17.389883
v -1.346314 11.202312 17.388264
v 2.666476 10.961871 17.349043
v 2.493647 11.201283 17.350653
v 2.666477 14.013692 17.349043
v 2.493647 13.774282 17.350653
v -1.519143 14.018692 17.389883
v 2.666475 6.310921 17.349043
v -1.508324 6.310922 17.389772
v -1.336074 6.536192 17.388172
v -1.508324 6.310922 17.389772
v -1.342704 8.974182 17.388233
v -1.516124 9.199463 17.389853
v 2.493646 8.974181 17.350653
v 2.666476 9.199461 17.349043
v 2.493646 6.536192 17.350653
v 2.666475 6.310921 17.349043
v -1.336074 6.536192 17.388172
v 2.666475 1.504592 17.349041
v -1.505305 1.490192 17.389751
v -1.332465 1.699192 17.388130
v -1.505305 1.490192 17.389751
v -1.332465 4.136262 17.388130
v -1.505305 4.361542 17.389751
v 2.493646 4.140141 17.350651
v 2.666475 4.364741 17.349041
v 2.493645 1.728291 17.350651
v 2.666475 1.504592 17.349041
v -1.332465 1.699192 17.388130
vt 0.378100 0.705600
vt 0.387100 0.712900
vt 0.641200 0.674600
vt 0.623900 0.684900
vt 0.695400 0.003800
vt 0.681500 0.000000
vt 0.641200 0.009000
vt 0.627800 0.005800
vt 0.328600 0.046300
vt 0.315100 0.042700
vt 0.328600 0.123400
vt 0.315100 0.119100
vt 0.328600 0.321000
vt 0.315100 0.316700
vt 0.695400 0.003800
vt 0.695400 0.081400
vt 0.681500 0.000000
vt 0.680200 0.077400
vt 0.327900 0.711600
vt 0.328000 0.621700
vt 0.314400 0.707300
vt 0.328000 0.621700
vt 0.314500 0.617400
vt 0.328000 0.621700
vt 0.315000 0.419800
vt 0.328500 0.424100
vt 0.679200 0.574400
vt 0.679800 0.376800
vt 0.692700 0.578700
vt 0.693200 0.381100
vt 0.328500 0.424100
vt 0.328600 0.321000
vt 0.315000 0.419800
vt 0.315100 0.316700
vt 0.693200 0.278200
vt 0.679700 0.273900
vt 0.695400 0.081400
vt 0.680200 0.077400
vt 0.641200 0.960800
vt 0.378100 0.993400
vt 0.627800 0.956600
vt 0.364600 0.989200
vt 0.378100 0.993400
vt 0.327900 1.000000
vt 0.364600 0.989200
vt 0.314400 0.995700
vt 0.679200 0.951800
vt 0.679200 0.874200
vt 0.692700 0.956000
vt 0.679200 0.874200
vt 0.692700 0.878400
vt 0.679200 0.664200
vt 0.692700 0.668500
vt 0.679200 0.574400
vt 0.692700 0.578700
vt 0.327900 0.711600
vt 0.314400 0.707300
vt 0.327900 0.922100
vt 0.314400 0.917900
vt 0.327900 1.000000
vt 0.314400 0.995700
vt 0.641200 0.009000
vt 0.627800 0.005800
vt 0.378900 0.039600
vt 0.365400 0.036800
vt 0.378900 0.315000
vt 0.378900 0.117500
vt 0.328600 0.321000
vt 0.378900 0.117500
vt 0.328600 0.123400
vt 0.378900 0.117500
vt 0.328600 0.046300
vt 0.378900 0.117500
vt 0.378900 0.039600
vt 0.378900 0.117500
vt 0.641200 0.009000
vt 0.641200 0.087500
vt 0.695400 0.003800
vt 0.641200 0.087500
vt 0.695400 0.081400
vt 0.641200 0.087500
vt 0.693200 0.278200
vt 0.641200 0.284300
vt 0.693200 0.278200
vt 0.641200 0.386100
vt 0.693200 0.381100
vt 0.641200 0.584700
vt 0.692700 0.578700
vt 0.692700 0.668500
vt 0.641200 0.884500
vt 0.378100 0.916000
vt 0.641200 0.960800
vt 0.378100 0.916000
vt 0.378100 0.993400
vt 0.327900 0.922100
vt 0.327900 1.000000
vt 0.327900 0.922100
vt 0.378100 0.916000
vt 0.327900 0.711600
vt 0.378100 0.705600
vt 0.328000 0.621700
vt 0.378300 0.615800
vt 0.328500 0.424100
vt 0.378700 0.417100
vt 0.328600 0.321000
vt 0.378700 0.417100
vt 0.378900 0.315000
vt 0.378700 0.417100
vt 0.641200 0.284300
vt 0.641200 0.386100
vt 0.692700 0.956000
vt 0.692700 0.878400
vt 0.641200 0.960800
vt 0.692700 0.878400
vt 0.641200 0.884500
vt 0.692700 0.668500
vt 0.641200 0.674600
vt 0.641200 0.584700
vt 0.641200 0.674600
vt 0.378300 0.615800
vt 0.378100 0.705600
vt 0.401500 0.884100
vt 0.612400 0.859000
vt 0.401500 0.729400
vt 0.612400 0.704500
vt 0.402300 0.138600
vt 0.402300 0.285000
vt 0.612400 0.115600
vt 0.612400 0.260500
vt 0.387100 0.902800
vt 0.378100 0.916000
vt 0.623900 0.874600
vt 0.641200 0.884500
vt 0.378300 0.615800
vt 0.641200 0.584700
vt 0.387200 0.603300
vt 0.623900 0.575400
vt 0.387700 0.423800
vt 0.378700 0.417100
vt 0.387200 0.603300
vt 0.378300 0.615800
vt 0.387800 0.302600
vt 0.378900 0.315000
vt 0.623900 0.275000
vt 0.641200 0.284300
vt 0.378900 0.117500
vt 0.378900 0.315000
vt 0.387800 0.124200
vt 0.387800 0.302600
vt 0.679200 0.951800
vt 0.692700 0.956000
vt 0.627800 0.956600
vt 0.641200 0.960800
vt 0.387700 0.423800
vt 0.623900 0.395900
vt 0.378700 0.417100
vt 0.641200 0.386100
vt 0.641200 0.386100
vt 0.623900 0.395900
vt 0.641200 0.584700
vt 0.623900 0.575400
vt 0.378900 0.117500
vt 0.387800 0.124200
vt 0.641200 0.087500
vt 0.623900 0.097200
vt 0.623900 0.097200
vt 0.623900 0.275000
vt 0.641200 0.087500
vt 0.641200 0.284300
vt 0.401500 0.884100
vt 0.396400 0.886800
vt 0.612400 0.859000
vt 0.614600 0.860800
vt 0.396600 0.588200
vt 0.614600 0.562500
vt 0.401700 0.585700
vt 0.612400 0.560900
vt 0.402100 0.439200
vt 0.397000 0.436700
vt 0.401700 0.585700
vt 0.396600 0.588200
vt 0.402300 0.285000
vt 0.397200 0.287500
vt 0.612400 0.260500
vt 0.614600 0.262100
vt 0.396400 0.726700
vt 0.401500 0.729400
vt 0.614600 0.700900
vt 0.612400 0.704500
vt 0.402100 0.439200
vt 0.612400 0.414400
vt 0.397000 0.436700
vt 0.614600 0.411000
vt 0.614600 0.411000
vt 0.612400 0.414400
vt 0.614600 0.562500
vt 0.612400 0.560900
vt 0.397200 0.136000
vt 0.402300 0.138600
vt 0.614600 0.112200
vt 0.612400 0.115600
vt 0.612400 0.115600
vt 0.612400 0.260500
vt 0.614600 0.112200
vt 0.614600 0.262100
vt 0.402300 0.285000
vt 0.402300 0.138600
vt 0.397200 0.287500
vt 0.397200 0.136000
vt 0.401500 0.884100
vt 0.401500 0.729400
vt 0.396400 0.886800
vt 0.396400 0.726700
vt 0.612400 0.704500
vt 0.612400 0.859000
vt 0.614600 0.700900
vt 0.614600 0.860800
vt 0.623900 0.684900
vt 0.623900 0.874600
vt 0.641200 0.674600
vt 0.641200 0.884500
vt 0.378100 0.705600
vt 0.378100 0.916000
vt 0.387100 0.712900
vt 0.387100 0.902800
vt 0.612400 0.414400
vt 0.402100 0.439200
vt 0.612400 0.560900
vt 0.401700 0.585700
vt 0.378900 0.039600
vt 0.365400 0.036800
vt 0.328600 0.046300
vt 0.315100 0.042700
vt 0.693200 0.278200
vt 0.693200 0.381100
vt 0.679700 0.273900
vt 0.679800 0.376800
vt 0.614600 0.860800
vt 0.396400 0.886800
vt 0.387100 0.902800
vt 0.396400 0.886800
vt 0.387100 0.712900
vt 0.396400 0.726700
vt 0.623900 0.684900
vt 0.614600 0.700900
vt 0.623900 0.874600
vt 0.614600 0.860800
vt 0.387100 0.902800
vt 0.623900 0.395900
vt 0.387700 0.423800
vt 0.397000 0.436700
vt 0.387700 0.423800
vt 0.396600 0.588200
vt 0.387200 0.603300
vt 0.614600 0.562500
vt 0.623900 0.575400
vt 0.614600 0.411000
vt 0.623900 0.395900
vt 0.397000 0.436700
vt 0.623900 0.097200
vt 0.387800 0.124200
vt 0.397200 0.136000
vt 0.387800 0.124200
vt 0.397200 0.287500
vt 0.387800 0.302600
vt 0.614600 0.262100
vt 0.623900 0.275000
vt 0.614600 0.112200
vt 0.623900 0.097200
vt 0.397200 0.136000
vn -0.0076 0.6127 -0.7903
vn -0.0076 0.6123 -0.7906
vn 0.0197 -0.9998 0.0086
vn 0.0165 -0.9997 0.0169
vn 0.0096 -0.9994 0.0345
vn 0.0064 -0.9991 0.0428
vn -0.9999 0.0000 0.0169
vn 0.9994 -0.0000 0.0345
vn 0.9981 0.0086 0.0618
vn 0.9991 0.0022 0.0413
vn 0.9976 0.0107 0.0684
vn -0.9999 -0.0018 0.0170
vn -0.1721 -0.0003 0.9851
vn -0.3789 -0.0007 0.9254
vn -0.9999 -0.0022 0.0169
vn -0.7011 -0.0019 0.7131
vn -0.9999 -0.0027 0.0170
vn 1.0000 0.0032 -0.0093
vn -0.9999 -0.0016 0.0170
vn -0.9999 -0.0016 0.0169
vn 0.9999 0.0130 -0.0093
vn 0.9999 0.0122 -0.0030
vn 0.9981 0.0037 0.0620
vn 0.9977 0.0029 0.0684
vn 0.0055 1.0000 -0.0000
vn 0.0055 1.0000 0.0001
vn 0.0108 0.9999 0.0002
vn 0.0109 0.9999 -0.0001
vn 0.0108 0.9999 0.0001
vn 0.0109 0.9999 -0.0002
vn 1.0000 -0.0000 -0.0093
vn 0.1977 -0.0000 0.9803
vn 1.0000 -0.0000 -0.0091
vn 0.8775 -0.0000 0.4797
vn -0.9999 0.0000 0.0170
vn 0.0014 -0.9991 0.0428
vn 0.0013 -0.9991 0.0434
vn 0.0005 -0.9986 0.0532
vn 0.0005 -0.9986 0.0538
vn -0.0093 0.0000 -1.0000
vn -0.0021 0.0000 1.0000
vn -0.0065 0.0000 1.0000
vn -0.0039 0.0000 1.0000
vn -0.0024 0.0000 1.0000
vn -0.0095 0.0000 -1.0000
vn -0.9764 0.0000 -0.2160
vn -0.0319 0.0000 -0.9995
vn -0.0037 0.0000 1.0000
vn -0.9527 -0.0001 0.3039
vn -0.7732 -0.0000 -0.6342
vn -0.9983 0.0002 -0.0583
vn -0.0097 0.0000 -1.0000
vn -0.0019 0.0000 1.0000
vn -0.0209 0.0000 -0.9998
vn -0.0232 -0.0000 -0.9997
vn -0.0018 -0.0000 1.0000
vn -0.9942 -0.0001 0.1073
vn -0.0067 0.0000 1.0000
vn -0.0254 0.0000 -0.9997
vn -0.0186 0.0000 -0.9998
vn -0.0096 0.0000 -1.0000
vn -1.0000 0.0000 -0.0076
vn -0.0098 0.0000 -1.0000
vn -0.0085 -0.6105 -0.7919
vn -0.0085 -0.6106 -0.7919
vn -0.0085 -0.6117 -0.7910
vn -0.0085 -0.6118 -0.7910
vn -0.0075 -0.6361 -0.7715
vn -0.0075 -0.6356 -0.7720
vn -0.0075 -0.6355 -0.7720
vn 0.4542 0.0013 -0.8909
vn 0.4541 0.0013 -0.8909
vn -0.0070 -0.6357 -0.7719
vn -0.0070 -0.6358 -0.7718
vn -0.0071 -0.6369 -0.7709
vn -0.0071 -0.6370 -0.7709
vn 0.4541 0.0000 -0.8909
vn 0.4542 0.0000 -0.8909
vn -0.0213 0.9998 0.0002
vn -0.0075 0.6362 -0.7715
vn -0.0075 0.6356 -0.7720
vn -0.0075 0.6361 -0.7715
vn -0.4707 0.0000 -0.8823
vn -0.0097 0.6383 -0.7697
vn -0.0097 0.6378 -0.7701
vn -0.0062 0.7139 -0.7003
vn -0.0062 0.7139 -0.7002
vn -0.0061 0.7164 -0.6977
vn -0.0066 0.7371 -0.6758
vn -0.0066 0.7376 -0.6752
vn -0.0066 0.7377 -0.6751
vn -0.5559 -0.0015 -0.8312
vn -0.5555 -0.0015 -0.8315
vn -0.0074 0.7365 -0.6764
vn -0.0074 0.7366 -0.6763
vn -0.0074 0.7387 -0.6740
vn -0.0070 -0.7162 -0.6979
vn -0.0070 -0.7162 -0.6978
vn -0.0070 -0.7171 -0.6969
vn -0.0066 -0.7370 -0.6758
vn -0.0066 -0.7376 -0.6752
vn 0.5402 0.0000 -0.8415
vn -0.0009 -0.7417 -0.6707
vn -0.0009 -0.7417 -0.6708
vn -0.0009 -0.7371 -0.6758
vn -0.0009 -0.7370 -0.6759
vn -0.5553 0.0000 -0.8317
vn -0.5552 0.0000 -0.8317
vn -0.0116 -0.9985 0.0535
vn -0.0086 -0.9989 0.0465
vn -0.0031 -0.9994 0.0336
vn 0.0000 -0.9997 0.0264
vn 1.0000 -0.0001 -0.0093
vn -0.0098 -0.0003 -1.0000
vn -0.0344 -0.0011 -0.9994
vn -0.0096 -0.0002 -1.0000
vn -0.0249 0.0000 -0.9997
vn -0.0096 0.0002 -1.0000
vn -0.0095 0.0001 -1.0000
vn -0.0095 -0.0002 -1.0000
vn -0.0098 0.0003 -1.0000
vn -0.0098 0.0004 -1.0000
vn -0.0137 0.0005 0.9999
vn -0.0095 0.0002 -1.0000
vn -0.0098 -0.0004 -1.0000
vn -0.0123 0.0004 0.9999
vn -0.0096 0.0001 -1.0000
vn -0.0074 0.0000 1.0000
usemtl ar_48
s 1
f 1/1/1 2/2/1 3/3/2
f 2/2/1 4/4/2 3/3/2
f 5/5/3 6/6/4 7/7/5
f 6/6/4 8/8/6 7/7/5
f 9/9/7 10/10/7 11/11/7
f 10/10/7 12/12/7 11/11/7
f 11/11/7 12/12/7 13/13/7
f 12/12/7 14/14/7 13/13/7
f 15/15/8 16/16/9 17/17/10
f 16/16/9 18/18/11 17/17/10
f 19/19/12 20/20/13 21/21/12
f 20/20/13 22/22/14 21/21/12
f 21/21/12 22/22/14 23/23/15
f 22/22/14 24/24/16 23/23/15
f 23/23/15 24/24/16 25/25/17
f 24/24/16 26/26/17 25/25/17
f 27/27/18 28/28/18 29/29/18
f 28/28/18 30/30/18 29/29/18
f 31/31/19 32/32/20 33/33/19
f 32/32/20 34/34/20 33/33/19
f 35/35/21 36/36/22 37/37/23
f 36/36/22 38/38/24 37/37/23
f 39/39/25 40/40/26 41/41/25
f 40/40/26 42/42/26 41/41/25
f 43/43/27 44/44/28 45/45/29
f 44/44/28 46/46/30 45/45/29
f 47/47/31 48/48/32 49/49/33
f 48/48/32 50/50/34 49/49/33
f 49/49/33 50/50/34 51/51/31
f 50/50/34 52/52/31 51/51/31
f 51/51/31 52/52/31 53/53/31
f 52/52/31 54/54/31 53/53/31
f 53/53/31 54/54/31 55/55/31
f 56/56/35 57/57/35 58/58/35
f 57/57/35 59/59/35 58/58/35
f 58/58/35 59/59/35 60/60/35
f 59/59/35 61/61/35 60/60/35
f 62/62/36 63/63/37 64/64/38
f 63/63/37 65/65/39 64/64/38
f 66/66/40 67/67/41 68/68/40
f 67/67/41 69/69/42 68/68/40
f 68/68/40 69/69/42 70/70/40
f 69/69/42 71/71/43 70/70/40
f 70/70/40 71/71/43 72/72/40
f 71/71/43 73/73/44 72/72/40
f 72/72/40 73/73/44 74/74/45
f 73/73/44 75/75/46 74/74/45
f 74/74/45 75/75/46 76/76/45
f 75/75/46 77/77/47 76/76/45
f 76/76/45 77/77/47 78/78/40
f 77/77/47 79/79/48 78/78/40
f 78/78/40 79/79/48 80/80/40
f 79/79/48 81/81/49 80/80/40
f 80/80/40 81/81/49 82/82/50
f 81/81/49 83/83/40 82/82/50
f 82/82/50 83/83/40 84/84/51
f 83/83/40 85/85/40 84/84/51
f 84/84/51 85/85/40 86/86/40
f 85/85/40 87/87/40 86/86/40
f 86/86/40 87/87/40 88/88/40
f 87/87/40 89/89/40 88/88/40
f 90/90/52 91/91/53 92/92/52
f 91/91/53 93/93/54 92/92/52
f 92/92/52 93/93/54 94/94/45
f 93/93/54 95/95/40 94/94/45
f 94/94/45 95/95/40 96/96/40
f 97/97/40 98/98/40 99/99/40
f 98/98/40 100/100/40 99/99/40
f 99/99/40 100/100/40 101/101/40
f 100/100/40 102/102/40 101/101/40
f 101/101/40 102/102/40 103/103/40
f 102/102/40 104/104/55 103/103/40
f 103/103/40 104/104/55 105/105/40
f 104/104/55 106/106/56 105/105/40
f 105/105/40 106/106/56 107/107/45
f 106/106/56 108/108/57 107/107/45
f 107/107/45 108/108/57 109/109/52
f 108/108/57 110/110/52 109/109/52
f 111/111/40 112/112/58 113/113/40
f 112/112/58 114/114/59 113/113/40
f 113/113/40 114/114/59 115/115/40
f 114/114/59 116/116/40 115/115/40
f 115/115/40 116/116/40 117/117/60
f 116/116/40 118/118/61 117/117/60
f 117/117/60 118/118/61 119/119/62
f 118/118/61 120/120/52 119/119/62
f 119/119/62 120/120/52 121/121/52
f 122/122/63 123/123/63 124/124/63
f 123/123/63 125/125/63 124/124/63
f 126/126/63 127/127/63 128/128/63
f 127/127/63 129/129/63 128/128/63
f 130/130/64 131/131/65 132/132/66
f 131/131/65 133/133/67 132/132/66
f 134/134/68 135/135/69 136/136/68
f 135/135/69 137/137/70 136/136/68
f 138/138/71 139/139/71 140/140/72
f 139/139/71 141/141/72 140/140/72
f 142/142/73 143/143/74 144/144/75
f 143/143/74 145/145/76 144/144/75
f 146/146/77 147/147/78 148/148/77
f 147/147/78 149/149/78 148/148/77
f 150/150/79 151/151/79 152/152/79
f 151/151/79 153/153/79 152/152/79
f 154/154/80 155/155/81 156/156/82
f 155/155/81 157/157/81 156/156/82
f 158/158/83 159/159/83 160/160/83
f 159/159/83 161/161/83 160/160/83
f 162/162/84 163/163/84 164/164/85
f 163/163/84 165/165/85 164/164/85
f 166/166/83 167/167/83 168/168/83
f 167/167/83 169/169/83 168/168/83
f 170/170/86 171/171/87 172/172/88
f 171/171/87 173/173/88 172/172/88
f 174/174/89 175/175/90 176/176/89
f 175/175/90 177/177/91 176/176/89
f 178/178/92 179/179/92 180/180/93
f 179/179/92 181/181/93 180/180/93
f 182/182/94 183/183/95 184/184/96
f 183/183/95 185/185/96 184/184/96
f 186/186/97 187/187/98 188/188/99
f 187/187/98 189/189/99 188/188/99
f 190/190/100 191/191/101 192/192/100
f 191/191/101 193/193/101 192/192/100
f 194/194/102 195/195/102 196/196/102
f 195/195/102 197/197/102 196/196/102
f 198/198/103 199/199/104 200/200/105
f 199/199/104 201/201/106 200/200/105
f 202/202/102 203/203/102 204/204/102
f 203/203/102 205/205/102 204/204/102
f 206/206/107 207/207/107 208/208/107
f 207/207/107 209/209/107 208/208/107
f 210/210/108 211/211/108 212/212/108
f 211/211/108 213/213/108 212/212/108
f 214/214/102 215/215/102 216/216/102
f 215/215/102 217/217/102 216/216/102
f 218/218/83 219/219/83 220/220/83
f 219/219/83 221/221/83 220/220/83
f 222/222/78 223/223/78 224/224/78
f 223/223/78 225/225/78 224/224/78
f 226/226/63 227/227/63 228/228/63
f 227/227/63 229/229/63 228/228/63
f 230/230/109 231/231/110 232/232/111
f 231/231/110 233/233/112 232/232/111
f 234/234/113 235/235/113 236/236/113
f 235/235/113 237/237/113 236/236/113
f 238/238/114 239/239/115 240/240/116
f 239/239/115 241/241/117 240/240/116
f 240/240/116 241/241/117 242/242/118
f 241/241/117 243/243/119 242/242/118
f 242/242/118 243/243/119 244/244/116
f 243/243/119 245/245/120 244/244/116
f 244/244/116 245/245/120 246/246/118
f 245/245/120 247/247/119 246/246/118
f 246/246/118 247/247/119 248/248/121
f 249/249/122 250/250/123 251/251/124
f 250/250/123 252/252/58 251/251/124
f 251/251/124 252/252/58 253/253/120
f 252/252/58 254/254/116 253/253/120
f 253/253/120 254/254/116 255/255/124
f 254/254/116 256/256/118 255/255/124
f 255/255/124 256/256/118 257/257/120
f 256/256/118 258/258/116 257/257/120
f 257/257/120 258/258/116 259/259/125
f 260/260/121 261/261/126 262/262/127
f 261/261/126 263/263/128 262/262/127
f 262/262/127 263/263/128 264/264/116
f 263/263/128 265/265/116 264/264/116
f 264/264/116 265/265/116 266/266/124
f 265/265/116 267/267/118 266/266/124
f 266/266/124 267/267/118 268/268/120
f 267/267/118 269/269/116 268/268/120
f 268/268/120 269/269/116 270/270/125
