{"accessors":[{"name":"door_main_frame-Mesh_positions","componentType":5126,"count":896,"min":[9.081339836120605,0.03953799977898598,-1.8998429775238037],"max":[11.195899963378906,16.8080997467041,7.769297122955322],"type":"VEC3","bufferView":0,"byteOffset":0},{"name":"door_main_frame-Mesh_normals","componentType":5126,"count":896,"min":[-1,-1,-1],"max":[1,1,1],"type":"VEC3","bufferView":0,"byteOffset":10752},{"name":"door_main_frame-Mesh_texcoords","componentType":5126,"count":896,"min":[0,0],"max":[1,1],"type":"VEC2","bufferView":1,"byteOffset":0},{"name":"door_main_frame-Mesh_0_indices","componentType":5123,"count":2004,"min":[0],"max":[895],"type":"SCALAR","bufferView":2,"byteOffset":0}],"asset":{"generator":"obj2gltf","version":"2.0"},"buffers":[{"name":"MainDoor","byteLength":32680,"uri":"data:application/octet-stream;base64,"}],"bufferViews":[{"name":"bufferView_0","buffer":0,"byteLength":21504,"byteOffset":0,"byteStride":12,"target":34962},{"name":"bufferView_1","buffer":0,"byteLength":7168,"byteOffset":21504,"byteStride":8,"target":34962},{"name":"bufferView_2","buffer":0,"byteLength":4008,"byteOffset":28672,"target":34963}],"materials":[{"name":"ar_48","pbrMetallicRoughness":{"baseColorFactor":[0.64,0.64,0.64,1],"metallicFactor":0,"roughnessFactor":0.907843137},"emissiveFactor":[0,0,0],"alphaMode":"OPAQUE","doubleSided":false}],"meshes":[{"name":"door_main_frame-Mesh","primitives":[{"attributes":{"POSITION":0,"NORMAL":1,"TEXCOORD_0":2},"indices":3,"material":0,"mode":4}]}],"nodes":[{"name":"door_main_frame","mesh":0}],"scene":0,"scenes":[{"nodes":[0]}]}
