# Blender v2.79 (sub 0) OBJ File: ''
# www.blender.org
mtllib Window.mtl
o Windows
v -25.017601 12.261098 3.417685
v -25.017601 7.647519 3.417682
v -24.948999 12.261102 -3.237426
v -25.017601 7.647521 -3.237428
v -12.407399 11.581207 -19.115105
v -6.234660 11.581207 -19.131096
v -12.407599 15.293306 -19.130896
v -6.235090 15.318807 -19.103607
v -12.984000 11.025507 -19.113907
v -13.007801 5.856707 -18.943707
v -5.728720 11.025507 -18.961395
v -5.691740 5.833677 -18.929199
v -25.332010 15.386898 3.332357
v -25.316210 12.598998 3.332355
v -25.316811 15.386902 -3.155223
v -25.332211 12.599002 -3.155226
vt 0.259400 0.156000
vt 0.258200 0.446100
vt 0.741800 0.156000
vt 0.740600 0.448100
vt 0.258200 0.446100
vt 0.740600 0.448100
vt 0.259400 0.156000
vt 0.741800 0.156000
vt 0.259400 0.156000
vt 0.258200 0.446100
vt 0.741800 0.156000
vt 0.740600 0.448100
vt 0.259400 0.156000
vt 0.258200 0.446100
vt 0.741800 0.156000
vt 0.740600 0.448100
vn 0.9999 0.0000 0.0103
vn 1.0000 -0.0057 0.0063
vn 1.0000 -0.0091 0.0040
vn 0.9999 -0.0149 -0.0000
vn 0.0026 0.0043 1.0000
vn -0.0020 -0.0034 1.0000
vn 0.0002 0.0002 1.0000
vn -0.0044 -0.0074 1.0000
vn -0.0210 0.0330 0.9992
vn -0.0135 0.0224 0.9997
vn -0.0094 0.0167 0.9998
vn -0.0020 0.0062 1.0000
vn 1.0000 0.0057 0.0023
vn 1.0000 0.0028 0.0011
vn 1.0000 -0.0026 -0.0012
vn 1.0000 -0.0055 -0.0025
usemtl ar_windows
s 1
f 1/1/1 2/2/2 3/3/3
f 2/2/2 4/4/4 3/3/3
f 5/5/5 6/6/6 7/7/7
f 6/6/6 8/8/8 7/7/7
f 9/9/9 10/10/10 11/11/11
f 10/10/10 12/12/12 11/11/11
f 13/13/13 14/14/14 15/15/15
f 14/14/14 16/16/16 15/15/15
